<svg width="1258" height="1258" viewBox="0 0 1258 1258" fill="none" xmlns="http://www.w3.org/2000/svg">
<circle cx="790.5" cy="790.5" r="467.5" fill="url(#paint0_linear_454_374)" fill-opacity="0.03"/>
<circle cx="582.5" cy="606.5" r="467.5" fill="url(#paint1_linear_454_374)" fill-opacity="0.02"/>
<circle cx="545" cy="545" r="545" fill="url(#paint2_linear_454_374)" fill-opacity="0.03"/>
<circle cx="881" cy="857" r="350" fill="url(#paint3_linear_454_374)" fill-opacity="0.01"/>
<rect x="416.495" y="369.004" width="82.8842" height="82.8842" rx="18" fill="url(#paint4_linear_454_374)" fill-opacity="0.4"/>
<g clip-path="url(#clip0_454_374)">
<path d="M475.74 401.682C475.167 401.483 474.573 401.294 473.961 401.116C474.062 400.702 474.154 400.292 474.236 399.89C475.583 393.285 474.702 387.964 471.696 386.213C468.814 384.533 464.099 386.284 459.338 390.471C458.88 390.874 458.421 391.3 457.962 391.747C457.656 391.451 457.351 391.166 457.047 390.893C452.057 386.415 447.055 384.529 444.052 386.286C441.172 387.97 440.319 392.972 441.531 399.232C441.648 399.836 441.785 400.454 441.94 401.082C441.232 401.285 440.549 401.501 439.895 401.731C434.045 403.792 430.309 407.023 430.309 410.373C430.309 413.834 434.319 417.305 440.413 419.409C440.893 419.575 441.392 419.732 441.907 419.881C441.74 420.56 441.595 421.226 441.473 421.875C440.317 428.025 441.22 432.909 444.092 434.583C447.058 436.312 452.037 434.535 456.886 430.253C457.269 429.914 457.653 429.555 458.039 429.179C458.538 429.665 459.036 430.125 459.532 430.556C464.228 434.64 468.867 436.289 471.736 434.61C474.7 432.876 475.663 427.63 474.413 421.246C474.317 420.759 474.206 420.261 474.081 419.754C474.431 419.649 474.774 419.542 475.109 419.429C481.443 417.309 485.565 413.88 485.565 410.373C485.565 407.011 481.708 403.759 475.74 401.682ZM474.366 417.165C474.064 417.266 473.754 417.364 473.438 417.459C472.739 415.222 471.795 412.843 470.64 410.385C471.742 407.986 472.65 405.637 473.329 403.414C473.895 403.58 474.443 403.754 474.972 403.938C480.085 405.717 483.204 408.347 483.204 410.373C483.204 412.532 479.836 415.334 474.366 417.165ZM472.097 421.71C472.65 424.532 472.729 427.084 472.363 429.079C472.033 430.872 471.372 432.067 470.553 432.546C468.812 433.564 465.088 432.24 461.072 428.748C460.611 428.347 460.148 427.92 459.682 427.467C461.239 425.747 462.796 423.746 464.314 421.525C466.985 421.285 469.509 420.893 471.798 420.359C471.91 420.818 472.011 421.269 472.097 421.71ZM449.147 432.37C447.445 432.977 446.09 432.994 445.271 432.517C443.528 431.501 442.804 427.58 443.792 422.319C443.905 421.717 444.04 421.098 444.195 420.466C446.459 420.972 448.964 421.335 451.642 421.555C453.171 423.729 454.772 425.727 456.385 427.477C456.033 427.821 455.681 428.148 455.332 428.456C453.188 430.35 451.04 431.694 449.147 432.37ZM441.176 417.152C438.482 416.221 436.257 415.012 434.731 413.692C433.361 412.506 432.669 411.329 432.669 410.373C432.669 408.34 435.669 405.747 440.672 403.984C441.279 403.77 441.914 403.568 442.574 403.379C443.265 405.652 444.172 408.028 445.267 410.431C444.158 412.87 443.238 415.284 442.54 417.584C442.07 417.447 441.614 417.303 441.176 417.152ZM443.848 398.774C442.809 393.411 443.499 389.365 445.235 388.35C447.083 387.269 451.171 388.811 455.479 392.676C455.755 392.923 456.031 393.182 456.308 393.45C454.703 395.192 453.117 397.175 451.601 399.336C449.002 399.579 446.515 399.97 444.228 400.494C444.084 399.909 443.957 399.335 443.848 398.774ZM467.683 404.721C467.136 403.767 466.575 402.835 466.003 401.929C467.766 402.154 469.455 402.453 471.041 402.819C470.565 404.361 469.971 405.974 469.272 407.627C468.771 406.665 468.241 405.696 467.683 404.721ZM457.963 395.154C459.052 396.346 460.142 397.677 461.215 399.121C460.134 399.07 459.04 399.043 457.937 399.043C456.844 399.043 455.758 399.069 454.684 399.12C455.757 397.689 456.857 396.36 457.963 395.154ZM448.181 404.738C447.635 405.695 447.114 406.659 446.621 407.625C445.934 405.978 445.346 404.358 444.865 402.793C446.442 402.437 448.123 402.145 449.875 401.925C449.294 402.839 448.729 403.778 448.181 404.737V404.738ZM449.925 418.992C448.115 418.788 446.409 418.511 444.833 418.165C445.321 416.573 445.922 414.918 446.624 413.235C447.118 414.201 447.641 415.165 448.19 416.124H448.19C448.75 417.102 449.33 418.059 449.925 418.992ZM458.028 425.76C456.91 424.54 455.794 423.191 454.704 421.74C455.762 421.782 456.84 421.803 457.937 421.803C459.063 421.803 460.176 421.777 461.272 421.728C460.196 423.206 459.11 424.557 458.028 425.76ZM469.295 413.149C470.034 414.851 470.656 416.496 471.15 418.061C469.548 418.431 467.819 418.728 465.996 418.949C466.57 418.031 467.136 417.083 467.692 416.108C468.255 415.122 468.79 414.134 469.295 413.149ZM465.648 414.916C464.784 416.43 463.897 417.874 462.997 419.238C461.357 419.357 459.663 419.418 457.937 419.418C456.217 419.418 454.544 419.364 452.934 419.258C451.997 417.876 451.091 416.427 450.233 414.929H450.233C449.377 413.435 448.589 411.929 447.876 410.43C448.589 408.929 449.375 407.42 450.226 405.929L450.226 405.929C451.079 404.434 451.977 402.992 452.905 401.619C454.548 401.494 456.234 401.428 457.937 401.428H457.937C459.647 401.428 461.335 401.494 462.977 401.621C463.891 402.984 464.783 404.421 465.64 405.916C466.506 407.429 467.302 408.927 468.022 410.397C467.304 411.891 466.51 413.405 465.648 414.916ZM470.517 388.279C472.367 389.357 473.087 393.706 471.924 399.409C471.85 399.773 471.767 400.143 471.676 400.519C469.384 399.984 466.894 399.586 464.288 399.339C462.77 397.154 461.196 395.168 459.617 393.448C460.042 393.036 460.466 392.642 460.888 392.271C464.967 388.683 468.78 387.267 470.517 388.279ZM457.937 405.387C460.662 405.387 462.871 407.619 462.871 410.373C462.871 413.127 460.662 415.359 457.937 415.359C455.212 415.359 453.002 413.127 453.002 410.373C453.002 407.619 455.212 405.387 457.937 405.387Z" fill="white"/>
</g>
<rect x="499.379" y="483.972" width="65.0596" height="65.0596" rx="18" fill="url(#paint5_linear_454_374)" fill-opacity="0.4"/>
<g clip-path="url(#clip1_454_374)">
<path d="M544.119 499.123H551.961L532.354 533.849L512.747 499.123H520.492H527.747L532.354 507.175L536.864 499.123H544.119Z" fill="white"/>
<path d="M512.747 499.123L532.354 533.849L551.961 499.123H544.119L532.354 519.959L520.492 499.123H512.747Z" fill="white"/>
<path d="M520.492 499.123L532.354 520.059L544.119 499.123H536.864L532.354 507.175L527.747 499.123H520.492Z" fill="#35495E" fill-opacity="0.2"/>
</g>
<rect x="355" y="483.972" width="49.9088" height="49.9088" rx="18" fill="url(#paint6_linear_454_374)" fill-opacity="0.4"/>
<g clip-path="url(#clip2_454_374)">
<path d="M391.618 497.898C388.635 493.757 382.742 492.53 378.481 495.162L370.998 499.787C368.954 501.034 367.546 503.058 367.12 505.363C366.763 507.283 367.077 509.263 368.011 510.991C367.371 511.933 366.934 512.992 366.727 514.102C366.297 516.451 366.86 518.87 368.29 520.811C371.274 524.953 377.167 526.18 381.427 523.547L388.91 518.923C390.954 517.676 392.362 515.652 392.789 513.347C393.146 511.427 392.832 509.446 391.898 507.718C392.538 506.776 392.975 505.718 393.181 504.607C393.612 502.258 393.049 499.839 391.619 497.898" fill="white" fill-opacity="0.4"/>
<path d="M377.749 521.205C375.337 521.813 372.789 520.898 371.368 518.911C370.507 517.744 370.168 516.289 370.428 514.876C370.471 514.646 370.531 514.419 370.606 514.198L370.747 513.781L371.131 514.054C372.016 514.685 373.007 515.165 374.059 515.473L374.337 515.555L374.311 515.824C374.277 516.207 374.384 516.589 374.613 516.903C375.041 517.501 375.808 517.777 376.535 517.595C376.697 517.552 376.852 517.486 376.994 517.399L384.48 512.773C384.85 512.547 385.105 512.18 385.183 511.763C385.261 511.337 385.159 510.898 384.9 510.546C384.472 509.948 383.705 509.672 382.978 509.854C382.815 509.896 382.66 509.962 382.518 510.05L379.662 511.816C379.192 512.105 378.68 512.324 378.142 512.463C375.729 513.071 373.182 512.155 371.761 510.169C370.9 509.001 370.561 507.547 370.82 506.133C371.077 504.747 371.924 503.53 373.153 502.78L380.638 498.154C381.108 497.864 381.621 497.645 382.159 497.506C384.572 496.897 387.12 497.813 388.541 499.8C389.401 500.967 389.74 502.422 389.481 503.835C389.437 504.065 389.378 504.291 389.302 504.513L389.161 504.93L388.778 504.657C387.892 504.026 386.902 503.546 385.85 503.238L385.571 503.156L385.597 502.887C385.631 502.504 385.524 502.122 385.295 501.808C384.867 501.209 384.1 500.933 383.374 501.116C383.211 501.158 383.056 501.224 382.914 501.312L375.429 505.938C375.058 506.164 374.803 506.53 374.726 506.948C374.648 507.374 374.75 507.812 375.009 508.165C375.437 508.763 376.204 509.039 376.931 508.857C377.093 508.814 377.248 508.748 377.391 508.661L380.247 506.896C380.716 506.606 381.229 506.387 381.766 506.248C384.179 505.639 386.727 506.555 388.148 508.542C389.008 509.709 389.347 511.164 389.088 512.577C388.831 513.964 387.985 515.181 386.755 515.932L379.27 520.557C378.8 520.847 378.287 521.066 377.749 521.205" fill="white"/>
</g>
<rect x="370.151" y="274.533" width="62.386" height="62.386" rx="18" fill="url(#paint7_linear_454_374)" fill-opacity="0.4"/>
<path d="M395.941 324.44C393.759 323.493 391.718 321.086 391.713 318.623C391.707 315.938 393.401 313.658 395.509 312.16C395.256 313.121 395.117 314 395.745 314.86C396.329 315.659 397.351 316.048 398.316 315.837C400.571 315.342 400.674 312.852 399.337 311.402C398.016 309.966 396.737 308.343 397.24 306.261C397.492 305.217 398.13 304.239 398.939 303.54C398.318 305.18 400.084 306.798 401.248 307.604C403.267 309.002 405.482 310.058 407.338 311.697C409.291 313.42 410.733 315.749 410.442 318.45C410.126 321.378 407.81 323.414 405.211 324.442C410.702 323.225 416.376 318.945 416.493 312.829C416.589 307.798 413.152 303.926 408.894 301.709L408.672 301.587C408.788 301.872 408.827 302.114 408.822 302.331C408.861 302.171 408.886 302.007 408.894 301.837C408.892 302.048 408.865 302.247 408.816 302.434L408.822 302.331C408.758 302.602 408.651 302.855 408.507 303.085L408.57 303.018C407.72 304.433 405.421 304.74 404.285 303.275C402.458 300.918 404.323 298.378 404.584 295.882C404.91 292.755 402.957 289.719 400.535 287.902C401.869 290.068 400.112 292.935 398.706 294.537C397.343 296.091 395.685 297.388 394.18 298.799C392.563 300.315 391.009 301.912 389.681 303.691C387.023 307.252 385.396 311.731 386.592 316.174C387.787 320.614 391.616 323.44 395.941 324.44Z" fill="white"/>
<g filter="url(#filter0_f_454_374)">
<rect x="275" y="345" width="48" height="48" rx="18" fill="url(#paint8_linear_454_374)" fill-opacity="0.4"/>
</g>
<rect x="904" y="260" width="65" height="65" rx="18" fill="url(#paint9_linear_454_374)" fill-opacity="0.4"/>
<g filter="url(#filter1_f_454_374)">
<rect x="880" y="461" width="46" height="46" rx="18" fill="url(#paint10_linear_454_374)" fill-opacity="0.4"/>
</g>
<g filter="url(#filter2_f_454_374)">
<rect x="955" y="533" width="37" height="37" rx="18" fill="url(#paint11_linear_454_374)" fill-opacity="0.4"/>
</g>
<g filter="url(#filter3_f_454_374)">
<rect x="735" y="253" width="28" height="28" rx="14" fill="url(#paint12_linear_454_374)" fill-opacity="0.4"/>
</g>
<g filter="url(#filter4_f_454_374)">
<rect x="930" y="382" width="22" height="22" rx="11" fill="url(#paint13_linear_454_374)" fill-opacity="0.4"/>
</g>
<g filter="url(#filter5_f_454_374)">
<rect x="237" y="461" width="46" height="46" rx="18" fill="url(#paint14_linear_454_374)" fill-opacity="0.4"/>
</g>
<rect x="770.312" y="493.775" width="49.0175" height="49.0175" rx="18" fill="url(#paint15_linear_454_374)" fill-opacity="0.4"/>
<path d="M795.267 527.481V532.989C804.604 532.989 811.873 523.969 808.819 514.185C807.484 509.909 804.087 506.512 799.811 505.177C790.027 502.123 781.007 509.393 781.007 518.73H786.528C786.529 518.73 786.53 518.729 786.53 518.729C786.531 512.869 792.329 508.339 798.49 510.574C800.772 511.402 802.593 513.223 803.422 515.505C805.657 521.662 801.134 527.458 795.279 527.467V521.976C795.279 521.976 795.279 521.975 795.278 521.975H789.774C789.774 521.975 789.773 521.976 789.773 521.976V527.481H795.267ZM789.772 531.711H785.543L785.542 531.711V527.481H789.773V531.711C789.773 531.711 789.773 531.711 789.772 531.711ZM785.545 527.481H781.999C781.998 527.481 781.997 527.48 781.997 527.48V523.936C781.997 523.936 781.998 523.933 781.999 523.933H785.542C785.544 523.933 785.545 523.935 785.545 523.935V527.481Z" fill="white"/>
<rect x="556.417" y="270.968" width="122.098" height="122.098" rx="18" fill="url(#paint16_linear_454_374)" fill-opacity="0.4"/>
<g clip-path="url(#clip3_454_374)">
<path d="M617.912 371.53C616.833 371.53 615.825 371.239 614.89 370.73L605.319 364.984C603.88 364.184 604.599 363.893 605.031 363.747C606.974 363.093 607.334 362.947 609.349 361.784C609.565 361.638 609.852 361.711 610.068 361.856L617.408 366.293C617.696 366.439 618.056 366.439 618.272 366.293L646.985 349.491C647.273 349.346 647.417 349.055 647.417 348.691V315.16C647.417 314.797 647.273 314.506 646.985 314.36L618.272 297.631C617.984 297.486 617.624 297.486 617.408 297.631L588.695 314.36C588.408 314.506 588.264 314.869 588.264 315.16V348.691C588.264 348.982 588.408 349.346 588.695 349.491L596.539 354.074C600.785 356.256 603.448 353.71 603.448 351.164V318.07C603.448 317.633 603.808 317.197 604.311 317.197H607.981C608.413 317.197 608.845 317.561 608.845 318.07V351.164C608.845 356.91 605.751 360.256 600.353 360.256C598.698 360.256 597.403 360.256 593.733 358.438L586.177 354.074C584.306 352.983 583.154 350.946 583.154 348.764V315.233C583.154 313.051 584.306 311.014 586.177 309.923L614.89 293.122C616.689 292.103 619.136 292.103 620.935 293.122L649.648 309.923C651.519 311.014 652.67 313.051 652.67 315.233V348.764C652.67 350.946 651.519 352.983 649.648 354.074L620.935 370.875C619.999 371.312 618.92 371.53 617.912 371.53ZM626.764 348.473C614.17 348.473 611.579 342.654 611.579 337.708C611.579 337.272 611.939 336.835 612.443 336.835H616.185C616.617 336.835 616.977 337.126 616.977 337.563C617.552 341.418 619.208 343.309 626.836 343.309C632.88 343.309 635.471 341.927 635.471 338.654C635.471 336.763 634.751 335.381 625.324 334.435C617.48 333.635 612.587 331.889 612.587 325.561C612.587 319.67 617.48 316.179 625.684 316.179C634.895 316.179 639.429 319.379 640.005 326.362C640.005 326.58 639.933 326.798 639.789 327.016C639.645 327.162 639.429 327.307 639.213 327.307H635.471C635.111 327.307 634.751 327.016 634.679 326.652C633.816 322.652 631.585 321.343 625.684 321.343C619.064 321.343 618.272 323.67 618.272 325.416C618.272 327.525 619.208 328.18 628.131 329.344C636.982 330.507 641.156 332.18 641.156 338.436C641.084 344.836 635.903 348.473 626.764 348.473Z" fill="white"/>
</g>
<rect x="617.912" y="425.151" width="91.7965" height="91.7965" rx="18" fill="url(#paint17_linear_454_374)" fill-opacity="0.4"/>
<g clip-path="url(#clip4_454_374)">
<path d="M689.182 456.432C689.201 456.5 689.211 456.571 689.211 456.643V467.719C689.211 468.008 689.056 468.275 688.806 468.419L679.55 473.771V484.38C679.55 484.669 679.397 484.935 679.148 485.081L659.827 496.252C659.782 496.277 659.734 496.293 659.686 496.31C659.668 496.316 659.651 496.327 659.632 496.332C659.496 496.368 659.354 496.368 659.219 496.332C659.197 496.326 659.177 496.314 659.156 496.306C659.112 496.29 659.066 496.276 659.023 496.252L639.706 485.081C639.456 484.937 639.302 484.669 639.302 484.38V451.152C639.302 451.079 639.312 451.009 639.33 450.94C639.336 450.917 639.35 450.896 639.358 450.872C639.373 450.83 639.387 450.787 639.409 450.747C639.424 450.721 639.446 450.7 639.465 450.675C639.488 450.643 639.509 450.61 639.536 450.582C639.559 450.558 639.589 450.541 639.615 450.521C639.645 450.497 639.671 450.471 639.704 450.451H639.705L649.364 444.866C649.613 444.722 649.919 444.722 650.168 444.866L659.828 450.451H659.83C659.862 450.472 659.889 450.497 659.918 450.52C659.944 450.54 659.973 450.558 659.996 450.581C660.025 450.61 660.045 450.643 660.069 450.675C660.086 450.7 660.109 450.721 660.123 450.747C660.146 450.788 660.159 450.83 660.175 450.872C660.183 450.896 660.197 450.917 660.203 450.941C660.222 451.01 660.231 451.081 660.232 451.152V471.906L668.281 467.251V456.642C668.281 456.571 668.291 456.499 668.309 456.432C668.316 456.407 668.329 456.386 668.337 456.363C668.353 456.321 668.367 456.277 668.389 456.238C668.404 456.211 668.426 456.19 668.444 456.166C668.468 456.134 668.488 456.1 668.516 456.072C668.539 456.049 668.568 456.032 668.594 456.012C668.624 455.987 668.651 455.961 668.683 455.942H668.684L678.344 450.356C678.593 450.212 678.899 450.212 679.148 450.356L688.807 455.942C688.842 455.962 688.868 455.987 688.898 456.011C688.923 456.031 688.952 456.049 688.975 456.071C689.003 456.1 689.024 456.134 689.048 456.166C689.066 456.19 689.088 456.211 689.102 456.238C689.125 456.277 689.138 456.321 689.154 456.363C689.163 456.386 689.176 456.407 689.182 456.432ZM687.6 467.251V458.041L684.22 459.995L679.55 462.695V471.906L687.601 467.251H687.6ZM677.941 483.913V474.696L673.348 477.331L660.231 484.849V494.153L677.941 483.913ZM640.912 452.55V483.913L658.62 494.152V484.85L649.369 479.592L649.366 479.59L649.362 479.588C649.331 479.57 649.305 479.544 649.276 479.521C649.251 479.501 649.221 479.485 649.199 479.463L649.197 479.46C649.171 479.435 649.153 479.403 649.131 479.375C649.111 479.348 649.087 479.325 649.071 479.296L649.07 479.293C649.052 479.263 649.04 479.227 649.027 479.192C649.014 479.162 648.997 479.134 648.989 479.101V479.1C648.979 479.062 648.977 479.022 648.973 478.982C648.969 478.952 648.961 478.922 648.961 478.892V478.889V457.205L644.292 454.503L640.912 452.551V452.55ZM649.767 446.499L641.719 451.152L649.765 455.805L657.812 451.151L649.765 446.499H649.767ZM653.953 475.536L658.621 472.837V452.55L655.241 454.504L650.571 457.205V477.491L653.953 475.536ZM678.746 451.99L670.699 456.643L678.746 461.295L686.792 456.642L678.746 451.99ZM677.941 462.695L673.271 459.995L669.891 458.041V467.251L674.56 469.951L677.941 471.906V462.695ZM659.424 483.451L671.228 476.684L677.128 473.302L669.087 468.652L659.829 474.006L651.39 478.884L659.424 483.451Z" fill="white"/>
</g>
<rect x="748.923" y="332.463" width="114.077" height="114.077" rx="18" fill="url(#paint18_linear_454_374)" fill-opacity="0.4"/>
<g clip-path="url(#clip5_454_374)">
<path d="M805.961 368.112C796.455 368.112 790.513 372.853 788.137 382.335C791.702 377.594 795.861 375.816 800.614 377.001C803.326 377.678 805.264 379.64 807.41 381.812C810.905 385.351 814.95 389.446 823.786 389.446C833.292 389.446 839.234 384.705 841.611 375.224C838.046 379.964 833.887 381.742 829.133 380.557C826.421 379.881 824.483 377.918 822.337 375.746C818.842 372.208 814.797 368.112 805.961 368.112ZM788.137 389.446C778.63 389.446 772.689 394.187 770.312 403.669C773.877 398.928 778.036 397.15 782.789 398.335C785.501 399.012 787.44 400.974 789.585 403.146C793.081 406.685 797.126 410.78 805.961 410.78C815.468 410.78 821.409 406.039 823.786 396.557C820.221 401.298 816.062 403.076 811.309 401.891C808.597 401.215 806.658 399.252 804.513 397.08C801.018 393.542 796.972 389.446 788.137 389.446Z" fill="url(#paint19_linear_454_374)"/>
</g>
<defs>
<filter id="filter0_f_454_374" x="267" y="337" width="64" height="64" filterUnits="userSpaceOnUse" color-interpolation-filters="sRGB">
<feFlood flood-opacity="0" result="BackgroundImageFix"/>
<feBlend mode="normal" in="SourceGraphic" in2="BackgroundImageFix" result="shape"/>
<feGaussianBlur stdDeviation="4" result="effect1_foregroundBlur_454_374"/>
</filter>
<filter id="filter1_f_454_374" x="872" y="453" width="62" height="62" filterUnits="userSpaceOnUse" color-interpolation-filters="sRGB">
<feFlood flood-opacity="0" result="BackgroundImageFix"/>
<feBlend mode="normal" in="SourceGraphic" in2="BackgroundImageFix" result="shape"/>
<feGaussianBlur stdDeviation="4" result="effect1_foregroundBlur_454_374"/>
</filter>
<filter id="filter2_f_454_374" x="947" y="525" width="53" height="53" filterUnits="userSpaceOnUse" color-interpolation-filters="sRGB">
<feFlood flood-opacity="0" result="BackgroundImageFix"/>
<feBlend mode="normal" in="SourceGraphic" in2="BackgroundImageFix" result="shape"/>
<feGaussianBlur stdDeviation="4" result="effect1_foregroundBlur_454_374"/>
</filter>
<filter id="filter3_f_454_374" x="727" y="245" width="44" height="44" filterUnits="userSpaceOnUse" color-interpolation-filters="sRGB">
<feFlood flood-opacity="0" result="BackgroundImageFix"/>
<feBlend mode="normal" in="SourceGraphic" in2="BackgroundImageFix" result="shape"/>
<feGaussianBlur stdDeviation="4" result="effect1_foregroundBlur_454_374"/>
</filter>
<filter id="filter4_f_454_374" x="922" y="374" width="38" height="38" filterUnits="userSpaceOnUse" color-interpolation-filters="sRGB">
<feFlood flood-opacity="0" result="BackgroundImageFix"/>
<feBlend mode="normal" in="SourceGraphic" in2="BackgroundImageFix" result="shape"/>
<feGaussianBlur stdDeviation="4" result="effect1_foregroundBlur_454_374"/>
</filter>
<filter id="filter5_f_454_374" x="229" y="453" width="62" height="62" filterUnits="userSpaceOnUse" color-interpolation-filters="sRGB">
<feFlood flood-opacity="0" result="BackgroundImageFix"/>
<feBlend mode="normal" in="SourceGraphic" in2="BackgroundImageFix" result="shape"/>
<feGaussianBlur stdDeviation="4" result="effect1_foregroundBlur_454_374"/>
</filter>
<linearGradient id="paint0_linear_454_374" x1="409" y1="491" x2="542.5" y2="954" gradientUnits="userSpaceOnUse">
<stop stop-color="white" stop-opacity="0.4"/>
<stop offset="1" stop-color="white" stop-opacity="0"/>
</linearGradient>
<linearGradient id="paint1_linear_454_374" x1="281.964" y1="279.25" x2="675.332" y2="754.764" gradientUnits="userSpaceOnUse">
<stop stop-color="white"/>
<stop offset="1" stop-color="white" stop-opacity="0"/>
</linearGradient>
<linearGradient id="paint2_linear_454_374" x1="194.643" y1="163.5" x2="653.221" y2="717.843" gradientUnits="userSpaceOnUse">
<stop stop-color="white"/>
<stop offset="1" stop-color="white" stop-opacity="0"/>
</linearGradient>
<linearGradient id="paint3_linear_454_374" x1="656" y1="612" x2="950.5" y2="968" gradientUnits="userSpaceOnUse">
<stop stop-color="white"/>
<stop offset="1" stop-color="white" stop-opacity="0"/>
</linearGradient>
<linearGradient id="paint4_linear_454_374" x1="457.937" y1="369.004" x2="457.937" y2="451.888" gradientUnits="userSpaceOnUse">
<stop stop-color="#08A0F7"/>
<stop offset="1" stop-color="#08A0F7" stop-opacity="0"/>
</linearGradient>
<linearGradient id="paint5_linear_454_374" x1="531.909" y1="483.972" x2="531.909" y2="549.032" gradientUnits="userSpaceOnUse">
<stop stop-color="#08A0F7"/>
<stop offset="1" stop-color="#08A0F7" stop-opacity="0"/>
</linearGradient>
<linearGradient id="paint6_linear_454_374" x1="379.954" y1="483.972" x2="379.954" y2="533.881" gradientUnits="userSpaceOnUse">
<stop stop-color="#08A0F7"/>
<stop offset="1" stop-color="#08A0F7" stop-opacity="0"/>
</linearGradient>
<linearGradient id="paint7_linear_454_374" x1="401.344" y1="274.533" x2="401.344" y2="336.919" gradientUnits="userSpaceOnUse">
<stop stop-color="#08A0F7"/>
<stop offset="1" stop-color="#08A0F7" stop-opacity="0"/>
</linearGradient>
<linearGradient id="paint8_linear_454_374" x1="299" y1="345" x2="299" y2="393" gradientUnits="userSpaceOnUse">
<stop stop-color="#08A0F7"/>
<stop offset="1" stop-color="#08A0F7" stop-opacity="0"/>
</linearGradient>
<linearGradient id="paint9_linear_454_374" x1="936.5" y1="260" x2="936.5" y2="325" gradientUnits="userSpaceOnUse">
<stop stop-color="#08A0F7"/>
<stop offset="1" stop-color="#08A0F7" stop-opacity="0"/>
</linearGradient>
<linearGradient id="paint10_linear_454_374" x1="903" y1="461" x2="903" y2="507" gradientUnits="userSpaceOnUse">
<stop stop-color="#08A0F7"/>
<stop offset="1" stop-color="#08A0F7" stop-opacity="0"/>
</linearGradient>
<linearGradient id="paint11_linear_454_374" x1="973.5" y1="533" x2="973.5" y2="570" gradientUnits="userSpaceOnUse">
<stop stop-color="#08A0F7"/>
<stop offset="1" stop-color="#08A0F7" stop-opacity="0"/>
</linearGradient>
<linearGradient id="paint12_linear_454_374" x1="749" y1="253" x2="749" y2="281" gradientUnits="userSpaceOnUse">
<stop stop-color="#08A0F7"/>
<stop offset="1" stop-color="#08A0F7" stop-opacity="0"/>
</linearGradient>
<linearGradient id="paint13_linear_454_374" x1="941" y1="382" x2="941" y2="404" gradientUnits="userSpaceOnUse">
<stop stop-color="#08A0F7"/>
<stop offset="1" stop-color="#08A0F7" stop-opacity="0"/>
</linearGradient>
<linearGradient id="paint14_linear_454_374" x1="260" y1="461" x2="260" y2="507" gradientUnits="userSpaceOnUse">
<stop stop-color="#08A0F7"/>
<stop offset="1" stop-color="#08A0F7" stop-opacity="0"/>
</linearGradient>
<linearGradient id="paint15_linear_454_374" x1="794.821" y1="493.775" x2="794.821" y2="542.793" gradientUnits="userSpaceOnUse">
<stop stop-color="#08A0F7"/>
<stop offset="1" stop-color="#08A0F7" stop-opacity="0"/>
</linearGradient>
<linearGradient id="paint16_linear_454_374" x1="617.467" y1="270.968" x2="617.467" y2="393.067" gradientUnits="userSpaceOnUse">
<stop stop-color="#08A0F7"/>
<stop offset="1" stop-color="#08A0F7" stop-opacity="0"/>
</linearGradient>
<linearGradient id="paint17_linear_454_374" x1="663.811" y1="425.151" x2="663.811" y2="516.947" gradientUnits="userSpaceOnUse">
<stop stop-color="#08A0F7"/>
<stop offset="1" stop-color="#08A0F7" stop-opacity="0"/>
</linearGradient>
<linearGradient id="paint18_linear_454_374" x1="805.961" y1="332.463" x2="805.961" y2="446.54" gradientUnits="userSpaceOnUse">
<stop stop-color="#08A0F7"/>
<stop offset="1" stop-color="#08A0F7" stop-opacity="0"/>
</linearGradient>
<linearGradient id="paint19_linear_454_374" x1="768.332" y1="381.766" x2="829.829" y2="417.316" gradientUnits="userSpaceOnUse">
<stop stop-color="white"/>
<stop offset="1" stop-color="white" stop-opacity="0.5"/>
</linearGradient>
<clipPath id="clip0_454_374">
<rect width="55.2561" height="49.7305" fill="white" transform="translate(430.309 385.58)"/>
</clipPath>
<clipPath id="clip1_454_374">
<rect width="39.214" height="34.7579" fill="white" transform="translate(512.747 499.123)"/>
</clipPath>
<clipPath id="clip2_454_374">
<rect width="26.7368" height="31.193" fill="white" transform="translate(366.586 493.775)"/>
</clipPath>
<clipPath id="clip3_454_374">
<rect width="69.5158" height="79.3193" fill="white" transform="translate(583.154 292.358)"/>
</clipPath>
<clipPath id="clip4_454_374">
<rect width="49.9088" height="51.6912" fill="white" transform="translate(639.302 444.758)"/>
</clipPath>
<clipPath id="clip5_454_374">
<rect width="71.2982" height="42.7789" fill="white" transform="translate(770.312 368.112)"/>
</clipPath>
</defs>
</svg>
