<svg width="771" height="333" viewBox="0 0 771 333" fill="none" xmlns="http://www.w3.org/2000/svg">
<rect x="187.495" y="124.003" width="82.8842" height="82.8842" rx="18" fill="url(#paint0_linear_452_327)" fill-opacity="0.4"/>
<g clip-path="url(#clip0_452_327)">
<path d="M246.74 156.682C246.167 156.483 245.573 156.294 244.962 156.116C245.062 155.701 245.154 155.292 245.236 154.89C246.583 148.285 245.703 142.964 242.696 141.213C239.814 139.533 235.099 141.284 230.338 145.471C229.88 145.874 229.421 146.3 228.962 146.747C228.657 146.451 228.351 146.166 228.047 145.893C223.057 141.415 218.055 139.529 215.052 141.286C212.172 142.97 211.319 147.972 212.531 154.232C212.649 154.836 212.785 155.454 212.94 156.082C212.232 156.285 211.549 156.501 210.895 156.731C205.045 158.792 201.309 162.023 201.309 165.373C201.309 168.834 205.32 172.305 211.413 174.409C211.894 174.575 212.393 174.732 212.907 174.881C212.74 175.56 212.595 176.226 212.473 176.875C211.317 183.025 212.22 187.909 215.092 189.583C218.059 191.312 223.038 189.535 227.886 185.253C228.269 184.914 228.653 184.555 229.039 184.179C229.538 184.665 230.037 185.125 230.533 185.556C235.229 189.64 239.867 191.289 242.736 189.61C245.7 187.876 246.663 182.63 245.413 176.246C245.317 175.759 245.206 175.261 245.081 174.754C245.431 174.649 245.774 174.542 246.109 174.429C252.443 172.309 256.565 168.88 256.565 165.373C256.565 162.01 252.708 158.759 246.74 156.682ZM245.366 172.165C245.064 172.266 244.754 172.364 244.438 172.459C243.739 170.222 242.795 167.843 241.64 165.385C242.742 162.986 243.65 160.637 244.33 158.414C244.895 158.58 245.443 158.754 245.972 158.938C251.085 160.717 254.204 163.347 254.204 165.373C254.204 167.532 250.836 170.334 245.366 172.165ZM243.097 176.71C243.65 179.532 243.729 182.084 243.363 184.079C243.034 185.872 242.372 187.067 241.553 187.545C239.812 188.564 236.088 187.24 232.072 183.748C231.612 183.347 231.148 182.92 230.683 182.467C232.24 180.747 233.796 178.746 235.314 176.525C237.986 176.285 240.509 175.893 242.798 175.359C242.911 175.818 243.011 176.269 243.097 176.71ZM220.147 187.369C218.445 187.977 217.09 187.994 216.271 187.517C214.528 186.501 213.804 182.58 214.792 177.319C214.905 176.717 215.04 176.098 215.195 175.466C217.459 175.971 219.964 176.335 222.642 176.555C224.171 178.729 225.772 180.727 227.385 182.477C227.033 182.821 226.682 183.148 226.332 183.456C224.189 185.35 222.04 186.694 220.147 187.369ZM212.176 172.152C209.482 171.221 207.257 170.012 205.732 168.692C204.361 167.506 203.669 166.329 203.669 165.373C203.669 163.34 206.669 160.747 211.672 158.984C212.279 158.77 212.914 158.568 213.574 158.379C214.265 160.652 215.172 163.028 216.267 165.431C215.158 167.87 214.238 170.284 213.54 172.584C213.07 172.447 212.615 172.303 212.176 172.152ZM214.848 153.774C213.81 148.411 214.499 144.365 216.235 143.35C218.083 142.269 222.171 143.81 226.479 147.676C226.755 147.923 227.031 148.182 227.309 148.45C225.703 150.192 224.117 152.175 222.601 154.336C220.003 154.579 217.515 154.97 215.228 155.494C215.084 154.909 214.957 154.335 214.848 153.774ZM238.683 159.721C238.136 158.767 237.575 157.835 237.003 156.929C238.766 157.154 240.455 157.453 242.041 157.819C241.565 159.361 240.971 160.974 240.273 162.627C239.771 161.665 239.241 160.696 238.683 159.721ZM228.963 150.154C230.052 151.346 231.142 152.677 232.215 154.121C231.134 154.069 230.04 154.043 228.937 154.043C227.844 154.043 226.758 154.069 225.684 154.12C226.758 152.689 227.857 151.36 228.963 150.154ZM219.181 159.738C218.635 160.695 218.115 161.659 217.621 162.625C216.934 160.978 216.346 159.358 215.865 157.793C217.442 157.437 219.123 157.145 220.875 156.924C220.295 157.839 219.729 158.778 219.181 159.737V159.738ZM220.925 173.992C219.115 173.788 217.409 173.511 215.833 173.165C216.321 171.573 216.922 169.918 217.624 168.235C218.119 169.201 218.641 170.165 219.19 171.124H219.191C219.75 172.102 220.33 173.059 220.925 173.992ZM229.029 180.76C227.91 179.54 226.794 178.191 225.704 176.74C226.762 176.782 227.841 176.803 228.937 176.803C230.063 176.803 231.176 176.777 232.272 176.728C231.196 178.206 230.11 179.557 229.029 180.76ZM240.295 168.149C241.034 169.851 241.656 171.496 242.151 173.061C240.549 173.431 238.819 173.728 236.996 173.949C237.57 173.031 238.136 172.083 238.693 171.108C239.255 170.122 239.79 169.134 240.295 168.149ZM236.648 169.916C235.784 171.43 234.897 172.874 233.997 174.238C232.357 174.357 230.663 174.418 228.937 174.418C227.217 174.418 225.545 174.364 223.934 174.258C222.997 172.876 222.091 171.427 221.233 169.929H221.233C220.377 168.435 219.59 166.929 218.876 165.43C219.589 163.929 220.375 162.42 221.226 160.929L221.226 160.929C222.079 159.434 222.977 157.992 223.905 156.619C225.549 156.494 227.234 156.428 228.937 156.428H228.937C230.648 156.428 232.335 156.494 233.978 156.621C234.891 157.984 235.783 159.421 236.64 160.916C237.506 162.429 238.302 163.927 239.022 165.397C238.304 166.891 237.51 168.405 236.648 169.916ZM241.517 143.279C243.368 144.357 244.087 148.706 242.925 154.409C242.85 154.772 242.767 155.143 242.676 155.519C240.384 154.984 237.894 154.586 235.288 154.339C233.77 152.154 232.196 150.168 230.617 148.448C231.042 148.036 231.466 147.642 231.888 147.271C235.967 143.683 239.78 142.267 241.517 143.279ZM228.937 160.387C231.662 160.387 233.871 162.619 233.871 165.373C233.871 168.127 231.662 170.359 228.937 170.359C226.212 170.359 224.003 168.127 224.003 165.373C224.003 162.619 226.212 160.387 228.937 160.387Z" fill="white"/>
</g>
<rect x="270.379" y="238.972" width="65.0596" height="65.0596" rx="18" fill="url(#paint1_linear_452_327)" fill-opacity="0.4"/>
<g clip-path="url(#clip1_452_327)">
<path d="M315.119 254.123H322.961L303.354 288.849L283.747 254.123H291.492H298.747L303.354 262.175L307.864 254.123H315.119Z" fill="white"/>
<path d="M283.747 254.123L303.354 288.849L322.961 254.123H315.119L303.354 274.959L291.492 254.123H283.747Z" fill="white"/>
<path d="M291.492 254.123L303.354 275.059L315.119 254.123H307.864L303.354 262.175L298.747 254.123H291.492Z" fill="#35495E" fill-opacity="0.2"/>
</g>
<rect x="126" y="238.972" width="49.9088" height="49.9088" rx="18" fill="url(#paint2_linear_452_327)" fill-opacity="0.4"/>
<g clip-path="url(#clip2_452_327)">
<path d="M162.618 252.898C159.635 248.757 153.742 247.53 149.481 250.162L141.998 254.787C139.954 256.034 138.546 258.058 138.12 260.363C137.763 262.283 138.077 264.263 139.011 265.991C138.371 266.933 137.934 267.992 137.727 269.102C137.297 271.451 137.86 273.87 139.29 275.811C142.274 279.953 148.167 281.18 152.427 278.547L159.91 273.923C161.954 272.676 163.362 270.652 163.789 268.347C164.146 266.427 163.832 264.446 162.898 262.718C163.538 261.776 163.975 260.718 164.181 259.607C164.612 257.258 164.049 254.84 162.619 252.898" fill="white" fill-opacity="0.4"/>
<path d="M148.749 276.205C146.337 276.814 143.789 275.898 142.368 273.911C141.507 272.744 141.168 271.289 141.428 269.876C141.471 269.646 141.531 269.419 141.606 269.198L141.747 268.781L142.131 269.054C143.017 269.685 144.007 270.165 145.059 270.473L145.337 270.555L145.312 270.824C145.278 271.207 145.384 271.589 145.613 271.903C146.041 272.501 146.808 272.777 147.535 272.595C147.697 272.552 147.853 272.486 147.995 272.399L155.48 267.773C155.85 267.547 156.105 267.18 156.183 266.763C156.261 266.337 156.159 265.898 155.9 265.546C155.472 264.948 154.705 264.672 153.978 264.854C153.815 264.896 153.66 264.962 153.519 265.05L150.662 266.816C150.192 267.105 149.68 267.324 149.142 267.463C146.729 268.071 144.182 267.155 142.761 265.169C141.9 264.001 141.561 262.547 141.82 261.133C142.077 259.747 142.924 258.53 144.154 257.78L151.638 253.154C152.108 252.864 152.621 252.645 153.159 252.506C155.572 251.898 158.12 252.813 159.541 254.8C160.401 255.967 160.74 257.422 160.481 258.835C160.437 259.065 160.378 259.291 160.302 259.513L160.161 259.93L159.778 259.657C158.892 259.026 157.902 258.546 156.85 258.238L156.571 258.156L156.597 257.887C156.631 257.504 156.524 257.122 156.295 256.808C155.868 256.209 155.1 255.933 154.374 256.116C154.211 256.158 154.056 256.224 153.914 256.312L146.429 260.938C146.058 261.164 145.803 261.531 145.726 261.948C145.648 262.374 145.75 262.812 146.009 263.165C146.437 263.763 147.204 264.039 147.931 263.857C148.094 263.814 148.249 263.748 148.391 263.661L151.247 261.896C151.716 261.606 152.229 261.387 152.766 261.248C155.179 260.64 157.727 261.555 159.148 263.542C160.008 264.709 160.347 266.164 160.088 267.577C159.832 268.964 158.985 270.181 157.755 270.932L150.27 275.557C149.8 275.847 149.287 276.066 148.749 276.205" fill="white"/>
</g>
<rect x="141.151" y="29.5333" width="62.386" height="62.386" rx="18" fill="url(#paint3_linear_452_327)" fill-opacity="0.4"/>
<path d="M166.941 79.4395C164.759 78.4926 162.718 76.0856 162.713 73.6227C162.707 70.9376 164.402 68.6579 166.509 67.1597C166.256 68.1209 166.118 69.0002 166.745 69.86C167.329 70.6595 168.351 71.048 169.316 70.8371C171.571 70.3415 171.674 67.8521 170.338 66.4019C169.016 64.9657 167.737 63.3434 168.24 61.2605C168.492 60.2165 169.131 59.2386 169.939 58.5396C169.318 60.18 171.084 61.7979 172.248 62.6037C174.267 64.0018 176.482 65.0584 178.339 66.6973C180.291 68.4197 181.733 70.7489 181.442 73.4499C181.127 76.3777 178.81 78.414 176.211 79.4421C181.702 78.2249 187.377 73.9451 187.493 67.8292C187.589 62.7979 184.152 58.9259 179.894 56.709L179.672 56.5871C179.789 56.8718 179.827 57.1141 179.822 57.3309C179.861 57.171 179.886 57.0066 179.894 56.8371C179.892 57.048 179.865 57.247 179.816 57.4339L179.822 57.3309C179.758 57.6023 179.651 57.8545 179.507 58.0853L179.57 58.0178C178.72 59.4325 176.421 59.7398 175.285 58.2748C173.458 55.9183 175.323 53.3776 175.584 50.8822C175.91 47.7547 173.957 44.7187 171.535 42.9017C172.869 45.0684 171.112 47.9349 169.706 49.5372C168.343 51.0909 166.685 52.3878 165.18 53.7993C163.563 55.3152 162.009 56.9121 160.681 58.6913C158.023 62.2525 156.396 66.7313 157.592 71.1743C158.787 75.614 162.617 78.4402 166.941 79.4395Z" fill="white"/>
<g filter="url(#filter0_f_452_327)">
<rect x="46" y="100" width="48" height="48" rx="18" fill="url(#paint4_linear_452_327)" fill-opacity="0.4"/>
</g>
<rect x="675" y="15" width="65" height="65" rx="18" fill="url(#paint5_linear_452_327)" fill-opacity="0.4"/>
<g filter="url(#filter1_f_452_327)">
<rect x="651" y="216" width="46" height="46" rx="18" fill="url(#paint6_linear_452_327)" fill-opacity="0.4"/>
</g>
<g filter="url(#filter2_f_452_327)">
<rect x="726" y="288" width="37" height="37" rx="18" fill="url(#paint7_linear_452_327)" fill-opacity="0.4"/>
</g>
<g filter="url(#filter3_f_452_327)">
<rect x="506" y="8" width="28" height="28" rx="14" fill="url(#paint8_linear_452_327)" fill-opacity="0.4"/>
</g>
<g filter="url(#filter4_f_452_327)">
<rect x="701" y="137" width="22" height="22" rx="11" fill="url(#paint9_linear_452_327)" fill-opacity="0.4"/>
</g>
<g filter="url(#filter5_f_452_327)">
<rect x="8" y="216" width="46" height="46" rx="18" fill="url(#paint10_linear_452_327)" fill-opacity="0.4"/>
</g>
<rect x="541.312" y="248.775" width="49.0175" height="49.0175" rx="18" fill="url(#paint11_linear_452_327)" fill-opacity="0.4"/>
<path d="M566.267 282.481V287.99C575.604 287.99 582.874 278.969 579.819 269.185C578.484 264.91 575.087 261.512 570.811 260.177C561.027 257.123 552.007 264.393 552.007 273.73H557.528C557.529 273.73 557.53 273.729 557.53 273.729C557.531 267.869 563.33 263.339 569.49 265.574C571.772 266.402 573.593 268.223 574.422 270.505C576.657 276.662 572.134 282.458 566.279 282.467V276.976C566.279 276.976 566.279 276.975 566.278 276.975H560.774C560.774 276.975 560.773 276.976 560.773 276.976V282.481H566.267ZM560.772 286.712H556.543L556.542 286.711V282.481H560.773V286.711C560.773 286.711 560.773 286.712 560.772 286.712ZM556.545 282.481H552.999C552.998 282.481 552.997 282.48 552.997 282.48V278.936C552.997 278.936 552.998 278.933 552.999 278.933H556.542C556.544 278.933 556.545 278.935 556.545 278.935V282.481Z" fill="white"/>
<rect x="327.418" y="25.9684" width="122.098" height="122.098" rx="18" fill="url(#paint12_linear_452_327)" fill-opacity="0.4"/>
<g clip-path="url(#clip3_452_327)">
<path d="M388.912 126.53C387.833 126.53 386.825 126.239 385.89 125.73L376.319 119.984C374.88 119.184 375.599 118.893 376.031 118.747C377.974 118.093 378.334 117.947 380.349 116.783C380.565 116.638 380.852 116.711 381.068 116.856L388.409 121.293C388.696 121.439 389.056 121.439 389.272 121.293L417.985 104.491C418.273 104.346 418.417 104.055 418.417 103.691V70.1603C418.417 69.7966 418.273 69.5057 417.985 69.3602L389.272 52.6311C388.984 52.4857 388.624 52.4857 388.409 52.6311L359.695 69.3602C359.408 69.5057 359.264 69.8694 359.264 70.1603V103.691C359.264 103.982 359.408 104.346 359.695 104.491L367.539 109.074C371.785 111.256 374.448 108.71 374.448 106.164V73.0697C374.448 72.6333 374.808 72.1969 375.311 72.1969H378.981C379.413 72.1969 379.845 72.5606 379.845 73.0697V106.164C379.845 111.91 376.751 115.256 371.353 115.256C369.698 115.256 368.403 115.256 364.733 113.438L357.177 109.074C355.306 107.983 354.154 105.946 354.154 103.764V70.233C354.154 68.051 355.306 66.0144 357.177 64.9234L385.89 48.1216C387.689 47.1033 390.136 47.1033 391.935 48.1216L420.648 64.9234C422.519 66.0144 423.67 68.051 423.67 70.233V103.764C423.67 105.946 422.519 107.983 420.648 109.074L391.935 125.875C390.999 126.312 389.92 126.53 388.912 126.53ZM397.764 103.473C385.17 103.473 382.58 97.6542 382.58 92.7082C382.58 92.2718 382.939 91.8353 383.443 91.8353H387.185C387.617 91.8353 387.977 92.1263 387.977 92.5627C388.552 96.4177 390.208 98.3088 397.836 98.3088C403.88 98.3088 406.471 96.9268 406.471 93.6537C406.471 91.7626 405.751 90.3806 396.324 89.4351C388.48 88.635 383.587 86.8894 383.587 80.5614C383.587 74.6699 388.48 71.1786 396.684 71.1786C405.895 71.1786 410.429 74.3789 411.005 81.3615C411.005 81.5797 410.933 81.7979 410.789 82.0161C410.645 82.1616 410.429 82.3071 410.213 82.3071H406.471C406.111 82.3071 405.751 82.0161 405.68 81.6524C404.816 77.652 402.585 76.3428 396.684 76.3428C390.064 76.3428 389.272 78.6703 389.272 80.4159C389.272 82.5253 390.208 83.1799 399.131 84.3436C407.982 85.5074 412.156 87.1803 412.156 93.4355C412.084 99.8362 406.903 103.473 397.764 103.473Z" fill="white"/>
</g>
<rect x="388.912" y="180.151" width="91.7965" height="91.7965" rx="18" fill="url(#paint13_linear_452_327)" fill-opacity="0.4"/>
<g clip-path="url(#clip4_452_327)">
<path d="M460.182 211.432C460.201 211.5 460.211 211.571 460.211 211.642V222.719C460.211 223.008 460.056 223.275 459.806 223.419L450.55 228.771V239.38C450.55 239.669 450.397 239.935 450.148 240.081L430.827 251.252C430.782 251.277 430.734 251.293 430.686 251.31C430.668 251.316 430.651 251.327 430.632 251.332C430.496 251.368 430.354 251.368 430.219 251.332C430.197 251.326 430.177 251.314 430.156 251.306C430.112 251.29 430.066 251.276 430.023 251.252L410.706 240.081C410.456 239.937 410.302 239.669 410.302 239.38V206.152C410.302 206.079 410.312 206.009 410.33 205.94C410.336 205.917 410.35 205.896 410.358 205.872C410.373 205.83 410.387 205.786 410.409 205.747C410.424 205.721 410.446 205.7 410.465 205.675C410.488 205.643 410.509 205.61 410.536 205.582C410.559 205.558 410.589 205.541 410.615 205.521C410.645 205.497 410.671 205.471 410.704 205.451H410.705L420.364 199.866C420.613 199.722 420.919 199.722 421.168 199.866L430.828 205.451H430.83C430.862 205.472 430.889 205.497 430.918 205.52C430.944 205.54 430.973 205.558 430.996 205.581C431.025 205.61 431.045 205.643 431.069 205.675C431.086 205.7 431.109 205.721 431.123 205.747C431.146 205.788 431.159 205.83 431.175 205.872C431.183 205.896 431.197 205.917 431.203 205.941C431.222 206.01 431.231 206.081 431.232 206.152V226.906L439.281 222.251V211.641C439.281 211.571 439.291 211.499 439.309 211.432C439.316 211.407 439.329 211.386 439.337 211.363C439.353 211.32 439.367 211.277 439.389 211.238C439.404 211.211 439.426 211.19 439.444 211.166C439.468 211.134 439.488 211.1 439.516 211.072C439.539 211.049 439.568 211.032 439.594 211.012C439.624 210.987 439.651 210.961 439.683 210.942H439.684L449.344 205.356C449.593 205.212 449.899 205.212 450.148 205.356L459.807 210.942C459.842 210.962 459.868 210.987 459.898 211.011C459.923 211.031 459.952 211.049 459.975 211.071C460.003 211.1 460.024 211.134 460.048 211.166C460.066 211.19 460.088 211.211 460.102 211.238C460.125 211.277 460.138 211.32 460.154 211.363C460.163 211.386 460.176 211.407 460.182 211.432ZM458.6 222.251V213.041L455.22 214.995L450.55 217.695V226.906L458.601 222.251H458.6ZM448.941 238.913V229.696L444.348 232.331L431.231 239.849V249.153L448.941 238.913ZM411.912 207.55V238.913L429.62 249.152V239.85L420.369 234.592L420.366 234.59L420.362 234.588C420.331 234.57 420.305 234.544 420.276 234.521C420.251 234.501 420.221 234.485 420.199 234.463L420.197 234.46C420.171 234.435 420.153 234.403 420.131 234.375C420.111 234.348 420.087 234.325 420.071 234.296L420.07 234.293C420.052 234.263 420.04 234.227 420.027 234.192C420.014 234.162 419.997 234.134 419.989 234.101V234.1C419.979 234.062 419.977 234.022 419.973 233.982C419.969 233.952 419.961 233.922 419.961 233.891V233.889V212.205L415.292 209.503L411.912 207.551V207.55ZM420.767 201.499L412.719 206.152L420.765 210.805L428.812 206.151L420.765 201.499H420.767ZM424.953 230.536L429.621 227.837V207.55L426.241 209.504L421.571 212.205V232.491L424.953 230.536ZM449.746 206.99L441.699 211.642L449.746 216.295L457.792 211.641L449.746 206.99ZM448.941 217.695L444.271 214.995L440.891 213.041V222.251L445.56 224.951L448.941 226.906V217.695ZM430.424 238.451L442.228 231.684L448.128 228.302L440.087 223.652L430.829 229.006L422.39 233.884L430.424 238.451Z" fill="white"/>
</g>
<rect x="519.923" y="87.4631" width="114.077" height="114.077" rx="18" fill="url(#paint14_linear_452_327)" fill-opacity="0.4"/>
<g clip-path="url(#clip5_452_327)">
<path d="M576.961 123.112C567.455 123.112 561.513 127.853 559.137 137.335C562.702 132.594 566.861 130.816 571.614 132.001C574.326 132.678 576.264 134.64 578.41 136.812C581.905 140.351 585.95 144.446 594.786 144.446C604.292 144.446 610.234 139.705 612.611 130.224C609.046 134.964 604.887 136.742 600.133 135.557C597.421 134.881 595.483 132.918 593.337 130.746C589.842 127.208 585.797 123.112 576.961 123.112ZM559.137 144.446C549.63 144.446 543.689 149.187 541.312 158.669C544.877 153.928 549.036 152.15 553.79 153.335C556.501 154.012 558.44 155.974 560.585 158.146C564.081 161.685 568.126 165.78 576.961 165.78C586.468 165.78 592.409 161.039 594.786 151.557C591.221 156.298 587.062 158.076 582.309 156.891C579.597 156.215 577.658 154.252 575.513 152.08C572.018 148.542 567.972 144.446 559.137 144.446Z" fill="url(#paint15_linear_452_327)"/>
</g>
<defs>
<filter id="filter0_f_452_327" x="38" y="92" width="64" height="64" filterUnits="userSpaceOnUse" color-interpolation-filters="sRGB">
<feFlood flood-opacity="0" result="BackgroundImageFix"/>
<feBlend mode="normal" in="SourceGraphic" in2="BackgroundImageFix" result="shape"/>
<feGaussianBlur stdDeviation="4" result="effect1_foregroundBlur_452_327"/>
</filter>
<filter id="filter1_f_452_327" x="643" y="208" width="62" height="62" filterUnits="userSpaceOnUse" color-interpolation-filters="sRGB">
<feFlood flood-opacity="0" result="BackgroundImageFix"/>
<feBlend mode="normal" in="SourceGraphic" in2="BackgroundImageFix" result="shape"/>
<feGaussianBlur stdDeviation="4" result="effect1_foregroundBlur_452_327"/>
</filter>
<filter id="filter2_f_452_327" x="718" y="280" width="53" height="53" filterUnits="userSpaceOnUse" color-interpolation-filters="sRGB">
<feFlood flood-opacity="0" result="BackgroundImageFix"/>
<feBlend mode="normal" in="SourceGraphic" in2="BackgroundImageFix" result="shape"/>
<feGaussianBlur stdDeviation="4" result="effect1_foregroundBlur_452_327"/>
</filter>
<filter id="filter3_f_452_327" x="498" y="0" width="44" height="44" filterUnits="userSpaceOnUse" color-interpolation-filters="sRGB">
<feFlood flood-opacity="0" result="BackgroundImageFix"/>
<feBlend mode="normal" in="SourceGraphic" in2="BackgroundImageFix" result="shape"/>
<feGaussianBlur stdDeviation="4" result="effect1_foregroundBlur_452_327"/>
</filter>
<filter id="filter4_f_452_327" x="693" y="129" width="38" height="38" filterUnits="userSpaceOnUse" color-interpolation-filters="sRGB">
<feFlood flood-opacity="0" result="BackgroundImageFix"/>
<feBlend mode="normal" in="SourceGraphic" in2="BackgroundImageFix" result="shape"/>
<feGaussianBlur stdDeviation="4" result="effect1_foregroundBlur_452_327"/>
</filter>
<filter id="filter5_f_452_327" x="0" y="208" width="62" height="62" filterUnits="userSpaceOnUse" color-interpolation-filters="sRGB">
<feFlood flood-opacity="0" result="BackgroundImageFix"/>
<feBlend mode="normal" in="SourceGraphic" in2="BackgroundImageFix" result="shape"/>
<feGaussianBlur stdDeviation="4" result="effect1_foregroundBlur_452_327"/>
</filter>
<linearGradient id="paint0_linear_452_327" x1="228.937" y1="124.003" x2="228.937" y2="206.888" gradientUnits="userSpaceOnUse">
<stop stop-color="#08A0F7"/>
<stop offset="1" stop-color="#08A0F7" stop-opacity="0"/>
</linearGradient>
<linearGradient id="paint1_linear_452_327" x1="302.909" y1="238.972" x2="302.909" y2="304.032" gradientUnits="userSpaceOnUse">
<stop stop-color="#08A0F7"/>
<stop offset="1" stop-color="#08A0F7" stop-opacity="0"/>
</linearGradient>
<linearGradient id="paint2_linear_452_327" x1="150.954" y1="238.972" x2="150.954" y2="288.881" gradientUnits="userSpaceOnUse">
<stop stop-color="#08A0F7"/>
<stop offset="1" stop-color="#08A0F7" stop-opacity="0"/>
</linearGradient>
<linearGradient id="paint3_linear_452_327" x1="172.344" y1="29.5333" x2="172.344" y2="91.9193" gradientUnits="userSpaceOnUse">
<stop stop-color="#08A0F7"/>
<stop offset="1" stop-color="#08A0F7" stop-opacity="0"/>
</linearGradient>
<linearGradient id="paint4_linear_452_327" x1="70" y1="100" x2="70" y2="148" gradientUnits="userSpaceOnUse">
<stop stop-color="#08A0F7"/>
<stop offset="1" stop-color="#08A0F7" stop-opacity="0"/>
</linearGradient>
<linearGradient id="paint5_linear_452_327" x1="707.5" y1="15" x2="707.5" y2="80" gradientUnits="userSpaceOnUse">
<stop stop-color="#08A0F7"/>
<stop offset="1" stop-color="#08A0F7" stop-opacity="0"/>
</linearGradient>
<linearGradient id="paint6_linear_452_327" x1="674" y1="216" x2="674" y2="262" gradientUnits="userSpaceOnUse">
<stop stop-color="#08A0F7"/>
<stop offset="1" stop-color="#08A0F7" stop-opacity="0"/>
</linearGradient>
<linearGradient id="paint7_linear_452_327" x1="744.5" y1="288" x2="744.5" y2="325" gradientUnits="userSpaceOnUse">
<stop stop-color="#08A0F7"/>
<stop offset="1" stop-color="#08A0F7" stop-opacity="0"/>
</linearGradient>
<linearGradient id="paint8_linear_452_327" x1="520" y1="8" x2="520" y2="36" gradientUnits="userSpaceOnUse">
<stop stop-color="#08A0F7"/>
<stop offset="1" stop-color="#08A0F7" stop-opacity="0"/>
</linearGradient>
<linearGradient id="paint9_linear_452_327" x1="712" y1="137" x2="712" y2="159" gradientUnits="userSpaceOnUse">
<stop stop-color="#08A0F7"/>
<stop offset="1" stop-color="#08A0F7" stop-opacity="0"/>
</linearGradient>
<linearGradient id="paint10_linear_452_327" x1="31" y1="216" x2="31" y2="262" gradientUnits="userSpaceOnUse">
<stop stop-color="#08A0F7"/>
<stop offset="1" stop-color="#08A0F7" stop-opacity="0"/>
</linearGradient>
<linearGradient id="paint11_linear_452_327" x1="565.821" y1="248.775" x2="565.821" y2="297.793" gradientUnits="userSpaceOnUse">
<stop stop-color="#08A0F7"/>
<stop offset="1" stop-color="#08A0F7" stop-opacity="0"/>
</linearGradient>
<linearGradient id="paint12_linear_452_327" x1="388.467" y1="25.9684" x2="388.467" y2="148.067" gradientUnits="userSpaceOnUse">
<stop stop-color="#08A0F7"/>
<stop offset="1" stop-color="#08A0F7" stop-opacity="0"/>
</linearGradient>
<linearGradient id="paint13_linear_452_327" x1="434.811" y1="180.151" x2="434.811" y2="271.947" gradientUnits="userSpaceOnUse">
<stop stop-color="#08A0F7"/>
<stop offset="1" stop-color="#08A0F7" stop-opacity="0"/>
</linearGradient>
<linearGradient id="paint14_linear_452_327" x1="576.961" y1="87.4631" x2="576.961" y2="201.54" gradientUnits="userSpaceOnUse">
<stop stop-color="#08A0F7"/>
<stop offset="1" stop-color="#08A0F7" stop-opacity="0"/>
</linearGradient>
<linearGradient id="paint15_linear_452_327" x1="539.332" y1="136.766" x2="600.83" y2="172.316" gradientUnits="userSpaceOnUse">
<stop stop-color="white"/>
<stop offset="1" stop-color="white" stop-opacity="0.5"/>
</linearGradient>
<clipPath id="clip0_452_327">
<rect width="55.2561" height="49.7305" fill="white" transform="translate(201.309 140.58)"/>
</clipPath>
<clipPath id="clip1_452_327">
<rect width="39.214" height="34.7579" fill="white" transform="translate(283.747 254.123)"/>
</clipPath>
<clipPath id="clip2_452_327">
<rect width="26.7368" height="31.193" fill="white" transform="translate(137.586 248.775)"/>
</clipPath>
<clipPath id="clip3_452_327">
<rect width="69.5158" height="79.3193" fill="white" transform="translate(354.154 47.3578)"/>
</clipPath>
<clipPath id="clip4_452_327">
<rect width="49.9088" height="51.6912" fill="white" transform="translate(410.302 199.758)"/>
</clipPath>
<clipPath id="clip5_452_327">
<rect width="71.2982" height="42.7789" fill="white" transform="translate(541.312 123.112)"/>
</clipPath>
</defs>
</svg>
