<svg width="683" height="683" viewBox="0 0 683 683" fill="none" xmlns="http://www.w3.org/2000/svg">
<path d="M178 68.5333C172.533 70.9333 166.933 77.7333 166 83.0667C165.6 85.4667 165.467 201.467 165.6 340.933L166 594.533L168.8 598.133C170.267 600.133 173.2 603.067 175.2 604.533C178.8 607.333 179.333 607.333 333.333 607.333C487.333 607.333 487.867 607.333 491.467 604.533C500.533 597.867 500.667 597.467 501.067 564.533L501.467 534.667L498.133 531.333C493.733 526.933 487.6 526.933 483.333 531.333C480 534.533 480 534.667 480 560.667V586.667H333.333H186.667V337.333V88H333.333H480V138V188.133L483.333 191.333C487.6 195.733 493.733 195.733 498.133 191.333L501.467 188L501.067 134.133C500.667 82 500.533 80 497.867 76.5333C496.4 74.5333 493.467 71.6 491.467 70.1333C487.867 67.3333 487.067 67.3333 334.933 67.0667C209.867 66.8 181.2 67.0667 178 68.5333Z" fill="#808191"/>
<path d="M482.667 203.467C455.867 208.667 434.667 226.8 425.067 252.8C422.4 260 422.133 263.733 421.6 296.933L421.067 333.067L409.333 333.6C396.667 334 393.067 335.6 387.467 343.2C384.667 346.8 384.667 348.133 384.667 424C384.667 499.867 384.667 501.2 387.467 504.8C388.933 506.8 391.867 509.733 393.867 511.2C397.467 514 398.667 514 493.333 514C588 514 589.2 514 592.8 511.2C594.8 509.733 597.733 506.8 599.2 504.8C602 501.2 602 499.867 602 424C602 348.133 602 346.8 599.2 343.2C593.733 335.867 589.867 334 578.667 333.6L568.267 333.067L567.733 296.8C567.2 261.867 567.067 260.4 563.867 251.733C555.333 229.733 539.467 214.133 517.867 206.533C510.133 203.867 489.867 202.133 482.667 203.467ZM516.4 228.933C527.067 234 536.667 243.6 541.867 254.667L546 263.333L546.4 298.267L546.8 333.333H494.667H442.533L442.933 298.267L443.333 263.333L447.467 254.667C454.133 240.4 467.733 229.067 482.267 225.333C491.6 223.067 507.067 224.667 516.4 228.933ZM581.333 424V493.333H493.333H405.333V424V354.667H493.333H581.333V424Z" fill="#808191"/>
<path d="M218 287.867C211.6 290.8 207.467 295.067 204.667 301.6C201.733 308.933 201.733 376.4 204.667 383.733C207.467 390.267 211.6 394.533 218 397.467C235.467 405.467 253.333 392.267 253.333 371.333C253.333 365.2 252.8 363.333 250 360.667C246.133 356.667 240.133 356.267 235.867 359.867C233.467 361.867 232.533 364.133 232 370.133C231.333 377.467 231.067 378 228 378H224.667V342.667V307.333H228C231.067 307.333 231.333 307.867 232 315.2C232.533 321.2 233.467 323.467 235.867 325.467C240.133 329.067 246.133 328.667 250 324.667C252.8 322 253.333 320.133 253.333 313.733C253.2 292.933 235.333 279.867 218 287.867Z" fill="#808191"/>
<path d="M251.333 336.667C249.2 338.667 248 341.467 248 344C248 346.533 249.2 349.333 251.333 351.333C254.533 354.667 254.667 354.667 281.333 354.667C308 354.667 308.133 354.667 311.333 351.333C313.467 349.333 314.667 346.533 314.667 344C314.667 341.467 313.467 338.667 311.333 336.667C308.133 333.333 308 333.333 281.333 333.333C254.667 333.333 254.533 333.333 251.333 336.667Z" fill="#808191"/>
</svg>
